<svg width="270" height="88" viewBox="0 0 270 88" fill="none" xmlns="http://www.w3.org/2000/svg">
<rect x="16" y="24" width="40" height="40" rx="6" fill="url(#paint0_linear)"/>
<path d="M68.288 52.824L70.592 50.16C71.96 51.48 73.352 52.476 74.768 53.148C76.208 53.796 77.708 54.12 79.268 54.12C81.068 54.12 82.532 53.724 83.66 52.932C84.812 52.14 85.388 51.132 85.388 49.908C85.388 48.804 84.992 47.952 84.2 47.352C83.408 46.728 82.1 46.26 80.276 45.948L76.064 45.264C73.76 44.88 72.032 44.148 70.88 43.068C69.752 41.964 69.188 40.512 69.188 38.712C69.188 36.528 70.04 34.776 71.744 33.456C73.448 32.136 75.692 31.476 78.476 31.476C80.276 31.476 82.064 31.776 83.84 32.376C85.616 32.952 87.212 33.792 88.628 34.896L86.54 37.776C85.172 36.744 83.804 35.976 82.436 35.472C81.068 34.944 79.688 34.68 78.296 34.68C76.664 34.68 75.344 35.028 74.336 35.724C73.328 36.42 72.824 37.32 72.824 38.424C72.824 39.456 73.172 40.248 73.868 40.8C74.564 41.328 75.716 41.724 77.324 41.988L81.392 42.636C84.032 43.068 85.976 43.86 87.224 45.012C88.496 46.14 89.132 47.676 89.132 49.62C89.132 50.772 88.892 51.828 88.412 52.788C87.932 53.748 87.248 54.564 86.36 55.236C85.496 55.908 84.44 56.436 83.192 56.82C81.944 57.18 80.576 57.36 79.088 57.36C77.072 57.36 75.128 56.964 73.256 56.172C71.384 55.38 69.728 54.264 68.288 52.824ZM92.2021 57V31.8L95.8021 31.008V40.512C96.5221 39.792 97.3381 39.252 98.2501 38.892C99.1861 38.508 100.206 38.316 101.31 38.316C103.398 38.316 105.114 38.988 106.458 40.332C107.802 41.652 108.474 43.368 108.474 45.48V57H104.874V46.092C104.874 44.652 104.454 43.524 103.614 42.708C102.798 41.868 101.706 41.448 100.338 41.448C99.3781 41.448 98.5021 41.652 97.7101 42.06C96.9421 42.468 96.3061 43.056 95.8021 43.824V57H92.2021ZM111.8 47.82C111.8 46.5 112.04 45.264 112.52 44.112C113.024 42.936 113.708 41.928 114.572 41.088C115.436 40.224 116.444 39.552 117.596 39.072C118.772 38.568 120.02 38.316 121.34 38.316C122.66 38.316 123.896 38.568 125.048 39.072C126.224 39.552 127.232 40.224 128.072 41.088C128.936 41.928 129.608 42.936 130.088 44.112C130.592 45.264 130.844 46.5 130.844 47.82C130.844 49.164 130.592 50.424 130.088 51.6C129.608 52.752 128.936 53.76 128.072 54.624C127.232 55.464 126.224 56.136 125.048 56.64C123.896 57.12 122.66 57.36 121.34 57.36C120.02 57.36 118.772 57.12 117.596 56.64C116.444 56.136 115.436 55.464 114.572 54.624C113.708 53.76 113.024 52.752 112.52 51.6C112.04 50.424 111.8 49.164 111.8 47.82ZM121.34 54.192C122.996 54.192 124.4 53.58 125.552 52.356C126.728 51.108 127.316 49.596 127.316 47.82C127.316 46.044 126.728 44.544 125.552 43.32C124.4 42.096 122.996 41.484 121.34 41.484C119.684 41.484 118.268 42.096 117.092 43.32C115.916 44.544 115.328 46.044 115.328 47.82C115.328 49.596 115.904 51.108 117.056 52.356C118.232 53.58 119.66 54.192 121.34 54.192ZM134.249 64.452V38.676H137.813V40.44C138.557 39.768 139.409 39.264 140.369 38.928C141.329 38.568 142.349 38.388 143.429 38.388C144.725 38.388 145.937 38.64 147.065 39.144C148.193 39.624 149.165 40.284 149.981 41.124C150.821 41.964 151.481 42.96 151.961 44.112C152.441 45.264 152.681 46.5 152.681 47.82C152.681 49.14 152.441 50.388 151.961 51.564C151.481 52.716 150.821 53.712 149.981 54.552C149.165 55.392 148.181 56.064 147.029 56.568C145.877 57.048 144.653 57.288 143.357 57.288C142.349 57.288 141.365 57.132 140.405 56.82C139.469 56.508 138.617 56.064 137.849 55.488V64.452H134.249ZM142.961 41.52C141.929 41.52 140.969 41.712 140.081 42.096C139.193 42.48 138.449 43.02 137.849 43.716V51.996C138.425 52.668 139.157 53.196 140.045 53.58C140.957 53.964 141.929 54.156 142.961 54.156C144.713 54.156 146.177 53.556 147.353 52.356C148.553 51.156 149.153 49.656 149.153 47.856C149.153 46.056 148.553 44.556 147.353 43.356C146.153 42.132 144.689 41.52 142.961 41.52ZM172.062 54.912C171.007 55.728 169.903 56.34 168.751 56.748C167.599 57.132 166.339 57.324 164.971 57.324C163.627 57.324 162.367 57.084 161.191 56.604C160.015 56.1 158.995 55.428 158.131 54.588C157.267 53.748 156.583 52.752 156.079 51.6C155.599 50.424 155.359 49.164 155.359 47.82C155.359 46.5 155.599 45.264 156.079 44.112C156.559 42.96 157.207 41.964 158.023 41.124C158.839 40.284 159.811 39.624 160.939 39.144C162.067 38.64 163.267 38.388 164.539 38.388C165.787 38.388 166.951 38.64 168.031 39.144C169.135 39.624 170.071 40.296 170.839 41.16C171.631 42 172.255 43.008 172.711 44.184C173.167 45.36 173.395 46.62 173.395 47.964V49.008H158.923C159.163 50.52 159.859 51.78 161.011 52.788C162.163 53.772 163.531 54.264 165.115 54.264C166.003 54.264 166.855 54.12 167.671 53.832C168.487 53.544 169.183 53.148 169.759 52.644L172.062 54.912ZM164.467 41.412C163.099 41.412 161.899 41.868 160.867 42.78C159.859 43.692 159.223 44.868 158.959 46.308H169.831C169.567 44.916 168.931 43.752 167.923 42.816C166.939 41.88 165.787 41.412 164.467 41.412ZM165.655 30.9H169.975L165.367 35.292H162.343L165.655 30.9ZM182.408 57.324C180.416 57.324 178.796 56.808 177.548 55.776C176.3 54.744 175.676 53.4 175.676 51.744C175.676 50.016 176.336 48.66 177.656 47.676C178.976 46.668 180.788 46.164 183.092 46.164C183.98 46.164 184.844 46.26 185.684 46.452C186.524 46.62 187.328 46.86 188.096 47.172V45.228C188.096 43.932 187.712 42.96 186.944 42.312C186.176 41.664 185.072 41.34 183.632 41.34C182.792 41.34 181.916 41.472 181.004 41.736C180.092 41.976 179.072 42.36 177.944 42.888L176.612 40.188C177.98 39.54 179.276 39.072 180.5 38.784C181.724 38.472 182.936 38.316 184.136 38.316C186.512 38.316 188.348 38.892 189.644 40.044C190.964 41.172 191.624 42.78 191.624 44.868V57H188.096V55.416C187.28 56.064 186.404 56.544 185.468 56.856C184.532 57.168 183.512 57.324 182.408 57.324ZM179.132 51.672C179.132 52.56 179.504 53.28 180.248 53.832C181.016 54.384 182.012 54.66 183.236 54.66C184.196 54.66 185.084 54.516 185.9 54.228C186.716 53.94 187.448 53.508 188.096 52.932V49.764C187.4 49.38 186.668 49.104 185.9 48.936C185.132 48.744 184.292 48.648 183.38 48.648C182.084 48.648 181.052 48.924 180.284 49.476C179.516 50.028 179.132 50.76 179.132 51.672ZM195.772 57V38.676H199.372V40.404C200.044 39.732 200.812 39.216 201.676 38.856C202.54 38.496 203.488 38.316 204.52 38.316C205.744 38.316 206.848 38.592 207.832 39.144C208.816 39.672 209.596 40.416 210.172 41.376C210.916 40.368 211.804 39.612 212.836 39.108C213.892 38.58 215.068 38.316 216.364 38.316C218.38 38.316 220.024 38.988 221.296 40.332C222.592 41.652 223.24 43.368 223.24 45.48V57H219.64V46.092C219.64 44.652 219.256 43.524 218.488 42.708C217.744 41.868 216.724 41.448 215.428 41.448C214.54 41.448 213.736 41.652 213.016 42.06C212.296 42.468 211.672 43.08 211.144 43.896C211.192 44.136 211.228 44.4 211.252 44.688C211.276 44.952 211.288 45.216 211.288 45.48V57H207.724V46.092C207.724 44.652 207.34 43.524 206.572 42.708C205.828 41.868 204.808 41.448 203.512 41.448C202.648 41.448 201.868 41.64 201.172 42.024C200.476 42.384 199.876 42.936 199.372 43.68V57H195.772ZM243.254 54.912C242.198 55.728 241.094 56.34 239.942 56.748C238.79 57.132 237.53 57.324 236.162 57.324C234.818 57.324 233.558 57.084 232.382 56.604C231.206 56.1 230.186 55.428 229.322 54.588C228.458 53.748 227.774 52.752 227.27 51.6C226.79 50.424 226.55 49.164 226.55 47.82C226.55 46.5 226.79 45.264 227.27 44.112C227.75 42.96 228.398 41.964 229.214 41.124C230.03 40.284 231.002 39.624 232.13 39.144C233.258 38.64 234.458 38.388 235.73 38.388C236.978 38.388 238.142 38.64 239.222 39.144C240.326 39.624 241.262 40.296 242.03 41.16C242.822 42 243.446 43.008 243.902 44.184C244.358 45.36 244.586 46.62 244.586 47.964V49.008H230.114C230.354 50.52 231.05 51.78 232.202 52.788C233.354 53.772 234.722 54.264 236.306 54.264C237.194 54.264 238.046 54.12 238.862 53.832C239.678 53.544 240.374 53.148 240.95 52.644L243.254 54.912ZM235.658 41.412C234.29 41.412 233.09 41.868 232.058 42.78C231.05 43.692 230.414 44.868 230.15 46.308H241.022C240.758 44.916 240.122 43.752 239.114 42.816C238.13 41.88 236.978 41.412 235.658 41.412ZM248.375 49.8L247.907 30.9H251.615L251.183 49.8H248.375ZM249.779 57.288C249.155 57.288 248.615 57.06 248.159 56.604C247.703 56.148 247.475 55.608 247.475 54.984C247.475 54.36 247.703 53.832 248.159 53.4C248.615 52.944 249.155 52.716 249.779 52.716C250.403 52.716 250.931 52.944 251.363 53.4C251.819 53.832 252.047 54.36 252.047 54.984C252.047 55.608 251.819 56.148 251.363 56.604C250.931 57.06 250.403 57.288 249.779 57.288Z" fill="#0C2146"/>
<path d="M25.9866 51.448L28.6426 48.12C29.944 49.2507 31.192 50.0827 32.3866 50.616C33.6026 51.128 34.8826 51.384 36.2266 51.384C37.6133 51.384 38.7226 51.128 39.5546 50.616C40.3866 50.104 40.8026 49.4213 40.8026 48.568C40.8026 47.8 40.5146 47.2027 39.9386 46.776C39.384 46.3493 38.4453 46.0293 37.1226 45.816L32.6746 45.048C30.7546 44.728 29.2933 44.056 28.2906 43.032C27.3093 42.008 26.8186 40.6853 26.8186 39.064C26.8186 36.9733 27.608 35.32 29.1866 34.104C30.7866 32.888 32.9413 32.28 35.6506 32.28C37.272 32.28 38.904 32.5573 40.5466 33.112C42.2106 33.6667 43.6613 34.4347 44.8986 35.416L42.4026 38.872C41.208 37.9547 40.0346 37.2827 38.8826 36.856C37.7306 36.408 36.5466 36.184 35.3306 36.184C34.0933 36.184 33.1013 36.4187 32.3546 36.888C31.608 37.336 31.2346 37.944 31.2346 38.712C31.2346 39.3947 31.48 39.928 31.9706 40.312C32.4613 40.696 33.2826 40.9733 34.4346 41.144L38.6586 41.848C40.8773 42.2107 42.5413 42.9253 43.6506 43.992C44.7813 45.0373 45.3466 46.424 45.3466 48.152C45.3466 50.328 44.4826 52.0667 42.7546 53.368C41.048 54.6693 38.7653 55.32 35.9066 55.32C34.1146 55.32 32.344 54.9787 30.5946 54.296C28.8666 53.6133 27.3306 52.664 25.9866 51.448Z" fill="white"/>
<defs>
<linearGradient id="paint0_linear" x1="16" y1="44" x2="56" y2="44" gradientUnits="userSpaceOnUse">
<stop stop-color="#2979FF"/>
<stop offset="1" stop-color="#4C589E"/>
</linearGradient>
</defs>
</svg>
